<svg width="246" height="239" viewBox="0 0 246 239" fill="none" xmlns="http://www.w3.org/2000/svg">
<path d="M222.499 109.976C229.834 114.209 229.834 124.791 222.499 129.024L34.5034 237.51C27.1686 241.743 18 236.452 18 227.987L18 11.0134C18 2.54792 27.1686 -2.74301 34.5034 1.48971L222.499 109.976Z" fill="#FF006B"/>
<path d="M21.768 79.848C19.464 79.848 17.16 81 14.856 83.304V142.568L15.368 154.6C12.4667 155.027 9.608 155.24 6.792 155.24C5.42667 155.24 4.744 154.515 4.744 153.064V83.816C4.744 81.9387 4.40267 80.616 3.72 79.848C3.03733 78.9947 1.8 78.568 0.008 78.568C-0.0773333 76.3493 0.52 74.6 1.8 73.32C3.08 72.04 5.128 71.4 7.944 71.4C10.76 71.4 12.7653 72.808 13.96 75.624C17.288 72.808 20.7013 71.4 24.2 71.4C32.648 71.4 36.872 75.5813 36.872 83.944V143.72C36.872 145.512 37.2133 146.792 37.896 147.56C38.664 148.243 39.944 148.584 41.736 148.584C41.736 153.448 39.0053 155.88 33.544 155.88C29.0213 155.88 26.76 152.936 26.76 147.048V84.712C26.76 81.4693 25.096 79.848 21.768 79.848Z" fill="#6BFF00"/>
<path d="M57.35 146.408H62.342C63.7927 146.408 64.9447 145.981 65.798 145.128C66.7367 144.189 67.206 142.995 67.206 141.544V103.784C67.206 100.797 65.9687 99.304 63.494 99.304C62.214 99.304 60.9767 99.816 59.782 100.84C58.6727 101.779 57.862 102.803 57.35 103.912V146.408ZM57.35 154.6V164.84L58.246 173.288C55.942 174.227 53.2967 174.696 50.31 174.696C48.6033 174.696 47.75 174.056 47.75 172.776V102.504C47.75 100.712 47.4087 99.432 46.726 98.664C46.1287 97.896 44.934 97.512 43.142 97.512C43.0567 95.2933 43.6113 93.5867 44.806 92.392C46.086 91.1973 48.0913 90.6 50.822 90.6C53.638 90.6 55.6007 91.9227 56.71 94.568C59.3553 91.9227 62.342 90.6 65.67 90.6C68.998 90.6 71.686 91.752 73.734 94.056C75.782 96.2747 76.806 99.4747 76.806 103.656V141.032C76.806 145.299 75.4833 148.627 72.838 151.016C70.1927 153.405 66.6087 154.6 62.086 154.6H57.35Z" fill="#6BFF00"/>
<path d="M84.964 142.824V104.168C84.964 99.9013 86.2867 96.5733 88.932 94.184C91.5773 91.7947 95.1613 90.6 99.684 90.6C104.207 90.6 107.705 91.7093 110.18 93.928C112.74 96.1467 114.02 99.3893 114.02 103.656V142.312C114.02 146.579 112.655 149.907 109.924 152.296C107.279 154.685 103.695 155.88 99.172 155.88C94.6493 155.88 91.1507 154.771 88.676 152.552C86.2013 150.333 84.964 147.091 84.964 142.824ZM94.564 103.656V142.824C94.564 144.275 95.0333 145.512 95.972 146.536C96.9107 147.475 98.0627 147.944 99.428 147.944C100.879 147.944 102.073 147.475 103.012 146.536C103.951 145.512 104.42 144.275 104.42 142.824V103.656C104.42 102.205 103.951 101.011 103.012 100.072C102.073 99.048 100.879 98.536 99.428 98.536C98.0627 98.536 96.9107 99.048 95.972 100.072C95.0333 101.011 94.564 102.205 94.564 103.656Z" fill="#6BFF00"/>
<path d="M152.55 144.744C152.55 148.328 151.185 151.101 148.454 153.064C145.723 154.941 142.225 155.88 137.958 155.88C133.777 155.88 130.406 154.813 127.846 152.68C125.371 150.461 124.134 147.517 124.134 143.848V99.56L120.166 100.2C119.569 97.9813 119.27 96.0613 119.27 94.44C119.27 92.7333 119.825 91.88 120.934 91.88H124.39L126.182 79.848C126.523 77.9707 128.102 77.032 130.918 77.032C131.771 77.032 132.71 77.1173 133.734 77.288V91.88H144.87L151.526 91.24C151.953 93.4587 152.166 95.4213 152.166 97.128C152.166 98.7493 151.611 99.56 150.502 99.56H133.734V142.312C133.734 144.104 134.161 145.512 135.014 146.536C135.953 147.475 137.105 147.944 138.47 147.944C141.627 147.944 143.206 145.853 143.206 141.672V132.328L142.822 126.312C143.931 126.056 145.041 125.928 146.15 125.928C147.345 125.928 148.454 126.099 149.478 126.44C151.526 126.952 152.55 127.933 152.55 129.384V144.744Z" fill="#6BFF00"/>
<path d="M188.8 144.744C188.8 148.328 187.435 151.101 184.704 153.064C181.973 154.941 178.475 155.88 174.208 155.88C170.027 155.88 166.656 154.813 164.096 152.68C161.621 150.461 160.384 147.517 160.384 143.848V99.56L156.416 100.2C155.819 97.9813 155.52 96.0613 155.52 94.44C155.52 92.7333 156.075 91.88 157.184 91.88H160.64L162.432 79.848C162.773 77.9707 164.352 77.032 167.168 77.032C168.021 77.032 168.96 77.1173 169.984 77.288V91.88H181.12L187.776 91.24C188.203 93.4587 188.416 95.4213 188.416 97.128C188.416 98.7493 187.861 99.56 186.752 99.56H169.984V142.312C169.984 144.104 170.411 145.512 171.264 146.536C172.203 147.475 173.355 147.944 174.72 147.944C177.877 147.944 179.456 145.853 179.456 141.672V132.328L179.072 126.312C180.181 126.056 181.291 125.928 182.4 125.928C183.595 125.928 184.704 126.099 185.728 126.44C187.776 126.952 188.8 127.933 188.8 129.384V144.744Z" fill="#6BFF00"/>
<path d="M200.986 80.232C197.317 80.232 195.482 77.8 195.482 72.936C195.482 68.072 197.317 65.64 200.986 65.64C204.655 65.64 206.49 68.072 206.49 72.936C206.49 77.8 204.655 80.232 200.986 80.232ZM193.05 91.88H205.85V143.976C205.85 145.768 206.149 147.048 206.746 147.816C207.429 148.584 208.666 148.968 210.458 148.968C210.543 151.187 209.946 152.893 208.666 154.088C207.471 155.283 205.679 155.88 203.29 155.88C200.901 155.88 199.109 155.155 197.914 153.704C196.805 152.253 196.25 149.864 196.25 146.536V99.56L192.282 100.2C191.685 97.9813 191.386 96.0613 191.386 94.44C191.386 92.7333 191.941 91.88 193.05 91.88Z" fill="#6BFF00"/>
<path d="M227.365 144.104C227.365 147.347 227.664 150.76 228.261 154.344C225.701 154.856 222.928 155.112 219.941 155.112C218.49 155.112 217.765 154.472 217.765 153.192V102.12L213.797 102.76C213.2 100.541 212.901 98.6213 212.901 97C212.901 95.2933 213.456 94.44 214.565 94.44H217.765V77.672C217.765 73.832 218.917 70.76 221.221 68.456C223.525 66.152 226.896 65 231.333 65C235.77 65 239.269 65.9813 241.829 67.944C244.474 69.8213 245.797 72.4667 245.797 75.88V82.408C245.797 83.8587 244.773 84.8827 242.725 85.48C241.701 85.736 240.592 85.864 239.397 85.864C238.288 85.864 237.178 85.736 236.069 85.48C236.325 83.6027 236.453 81.5973 236.453 79.464V78.696C236.453 76.8187 236.112 75.4533 235.429 74.6C234.746 73.6613 233.509 73.192 231.717 73.192C230.01 73.192 228.858 73.6613 228.261 74.6C227.664 75.5387 227.365 76.9893 227.365 78.952V94.44H233.765L240.421 93.8C240.848 96.0187 241.061 97.9813 241.061 99.688C241.061 101.309 240.506 102.12 239.397 102.12H227.365V144.104Z" fill="#6BFF00"/>
</svg>
